<?xml version="1.0" encoding="UTF-8" standalone="no"?>
<!DOCTYPE svg PUBLIC "-//W3C//DTD SVG 20010904//EN"
              "http://www.w3.org/TR/2001/REC-SVG-20010904/DTD/svg10.dtd">

<svg xmlns="http://www.w3.org/2000/svg"
     width="2.62467mm" height="2.286mm"
     viewBox="0 0 31 27">
	<path id="Lblue"
        fill="#91e4fb" stroke="none" stroke-width="1"
        d="M 1.00,4.00
           C 1.00,4.00 5.00,4.00 5.00,4.00
             5.00,4.00 5.00,23.00 5.00,23.00
             5.00,23.00 16.00,23.00 16.00,23.00
             16.00,23.00 16.00,26.00 16.00,26.00
             16.00,26.00 1.00,26.00 1.00,26.00
             1.00,26.00 1.00,4.00 1.00,4.00 Z" />
	<path id="Lpink"
        fill="#f6a2bf" stroke="none" stroke-width="1"
        d="M 15.00,1.00
           C 15.00,1.00 30.00,1.00 30.00,1.00
             30.00,1.00 30.00,23.00 30.00,23.00
             30.00,23.00 26.00,23.00 26.00,23.00
             26.00,23.00 26.00,4.00 26.00,4.00
             26.00,4.00 15.00,4.00 15.00,4.00
             15.00,4.00 15.00,1.00 15.00,1.00 Z" />
</svg>
